<svg width="100" height="100" viewBox="0 0 100 100" fill="none" xmlns="http://www.w3.org/2000/svg">
<path d="M70.338 39.3038H66.042C65.502 33.6089 61.891 28.7982 56.875 26.4905L58.908 21.3556C59.211 20.5913 58.831 19.7279 58.059 19.4286C57.289 19.1302 56.417 19.5049 56.115 20.2702L54.043 25.5032C52.812 25.1998 51.532 25.0204 50.207 25.0204C48.88 25.0204 47.597 25.1998 46.364 25.5051L44.292 20.2712C43.988 19.5059 43.116 19.1322 42.348 19.4296C41.577 19.7299 41.197 20.5923 41.499 21.3566L43.533 26.4944C38.521 28.8031 34.913 33.6118 34.373 39.3038H30.078C23.97 39.3038 19 44.2305 19 50.2852C19 56.34 23.97 61.2667 30.078 61.2667H34.844C36.524 67.5494 42.011 72.3076 48.708 72.9321V78.4179C48.708 79.2396 49.38 79.9048 50.208 79.9048C51.036 79.9048 51.708 79.2396 51.708 78.4179V72.9321C58.405 72.3076 63.892 67.5494 65.572 61.2667H70.338C76.446 61.2667 81.416 56.34 81.416 50.2852C81.416 44.2305 76.446 39.3038 70.338 39.3038ZM50.208 27.9933C57.327 27.9933 63.118 33.7338 63.118 40.7907V42.4432H60.542C59.714 42.4432 59.042 43.1083 59.042 43.9301C59.042 44.7519 59.714 45.417 60.542 45.417H63.118V48.7983H37.298V45.417H55.041C55.869 45.417 56.541 44.7519 56.541 43.9301C56.541 43.1083 55.869 42.4432 55.041 42.4432H37.298V40.7907C37.298 33.7338 43.089 27.9933 50.208 27.9933ZM34.298 58.2928H30.078C25.624 58.2928 22 54.7004 22 50.2852C22 45.8701 25.624 42.2777 30.078 42.2777H34.298V57.2361V58.2928ZM50.208 70.0336C43.392 70.0336 37.808 64.7679 37.343 58.1273H43.041C43.869 58.1273 44.541 57.4621 44.541 56.6404C44.541 55.8186 43.869 55.1534 43.041 55.1534H37.298V51.7722H63.118V55.1534H49.041C48.213 55.1534 47.541 55.8186 47.541 56.6404C47.541 57.4621 48.213 58.1273 49.041 58.1273H63.073C62.608 64.7679 57.024 70.0336 50.208 70.0336ZM70.338 58.2928H66.118V57.2361V42.2777H70.338C74.792 42.2777 78.416 45.8701 78.416 50.2852C78.416 54.7004 74.792 58.2928 70.338 58.2928Z" fill="black"/>
</svg>
