<svg width="100" height="100" viewBox="0 0 100 100" fill="none" xmlns="http://www.w3.org/2000/svg">
<path d="M80.861 5.57007H76.999H23.362H19.5C18.672 5.57007 18 6.23522 18 7.05699C18 7.87877 18.672 8.54392 19.5 8.54392H21.862V13.6649C21.862 15.8408 23.568 17.629 25.723 17.7847V39.929C23.568 40.0846 21.862 41.8729 21.862 44.0487V45.2472C21.862 47.4231 23.568 49.2114 25.723 49.367V71.5113C23.568 71.6669 21.862 73.4552 21.862 75.6311V76.8295C21.862 79.0054 23.568 80.7937 25.723 80.9493V84.0401C25.723 86.3072 27.399 88.1817 29.585 88.5415V93.2987C29.585 94.1205 30.257 94.7856 31.085 94.7856C31.913 94.7856 32.585 94.1205 32.585 93.2987V88.6179H67.774V93.2987C67.774 94.1205 68.446 94.7856 69.274 94.7856C70.102 94.7856 70.774 94.1205 70.774 93.2987V88.5415C72.96 88.1817 74.636 86.3082 74.636 84.0401V80.9493C76.791 80.7937 78.497 79.0054 78.497 76.8295V75.6311C78.497 73.4552 76.791 71.6659 74.636 71.5113V49.367C76.791 49.2114 78.497 47.4231 78.497 45.2472V44.0487C78.497 41.8729 76.791 40.0846 74.636 39.929V17.7847C76.791 17.629 78.497 15.8408 78.497 13.6649V8.54392H80.859C81.687 8.54392 82.359 7.87877 82.359 7.05699C82.359 6.23522 81.689 5.57007 80.861 5.57007ZM71.637 17.7956V39.9181H28.723V17.7956H71.637ZM75.498 75.6321V76.8305C75.498 77.4689 74.975 77.9873 74.331 77.9873H73.137H42.18C41.352 77.9873 40.68 78.6525 40.68 79.4743C40.68 80.296 41.352 80.9612 42.18 80.9612H71.637V84.0401C71.637 84.9244 70.911 85.643 70.02 85.643H40.263V84.8728C40.263 84.051 39.591 83.3859 38.763 83.3859C37.935 83.3859 37.263 84.051 37.263 84.8728V85.644H35.93V84.8728C35.93 84.051 35.258 83.3859 34.43 83.3859C33.602 83.3859 32.93 84.051 32.93 84.8728V85.644H30.34C29.448 85.644 28.723 84.9244 28.723 84.0411V80.9622H37.18C38.008 80.9622 38.68 80.297 38.68 79.4753C38.68 78.6535 38.008 77.9883 37.18 77.9883H27.223H26.029C25.385 77.9883 24.862 77.4699 24.862 76.8315V75.633C24.862 74.9947 25.385 74.4762 26.029 74.4762H27.223H73.137H74.331C74.975 74.4742 75.498 74.9937 75.498 75.6321ZM75.498 44.0487V45.2472C75.498 45.8856 74.975 46.404 74.331 46.404H73.137H67.931C67.103 46.404 66.431 47.0692 66.431 47.891C66.431 48.7127 67.103 49.3779 67.931 49.3779H71.637V71.5004H28.723V49.3779H62.93C63.758 49.3779 64.43 48.7127 64.43 47.891C64.43 47.0692 63.758 46.404 62.93 46.404H27.223H26.029C25.385 46.404 24.862 45.8856 24.862 45.2472V44.0487C24.862 43.4104 25.385 42.8919 26.029 42.8919H27.223H73.137H74.331C74.975 42.8919 75.498 43.4104 75.498 44.0487ZM75.498 13.6649C75.498 14.3033 74.975 14.8217 74.331 14.8217H73.137H70.042V13.3348C70.042 12.513 69.37 11.8479 68.542 11.8479C67.714 11.8479 67.042 12.513 67.042 13.3348V14.8217H65.013C65.013 13.9999 64.341 13.3348 63.513 13.3348C62.685 13.3348 62.013 13.9999 62.013 14.8217H27.223H26.029C25.385 14.8217 24.862 14.3033 24.862 13.6649V8.54392H75.499V13.6649H75.498Z" fill="black"/>
<path d="M66.931 62.8168C66.103 62.8168 65.431 63.4819 65.431 64.3037V67.4014C65.431 68.2232 66.103 68.8883 66.931 68.8883C67.759 68.8883 68.431 68.2232 68.431 67.4014V64.3037C68.431 63.4819 67.759 62.8168 66.931 62.8168Z" fill="black"/>
<path d="M65.431 58.3234V59.8728C65.431 60.6946 66.103 61.3597 66.931 61.3597C67.759 61.3597 68.431 60.6946 68.431 59.8728V58.3234C68.431 57.5016 67.759 56.8364 66.931 56.8364C66.103 56.8364 65.431 57.5016 65.431 58.3234Z" fill="black"/>
<path d="M33.0129 36.9968C33.8409 36.9968 34.5129 36.3317 34.5129 35.5099V33.6979C34.5129 32.8761 33.8409 32.2109 33.0129 32.2109C32.1849 32.2109 31.5129 32.8761 31.5129 33.6979V35.5099C31.5129 36.3317 32.1849 36.9968 33.0129 36.9968Z" fill="black"/>
<path d="M33.0129 30.7983C33.8409 30.7983 34.5129 30.1332 34.5129 29.3114V25.9055C34.5129 25.0837 33.8409 24.4186 33.0129 24.4186C32.1849 24.4186 31.5129 25.0837 31.5129 25.9055V29.3114C31.5129 30.1322 32.1849 30.7983 33.0129 30.7983Z" fill="black"/>
<path d="M43.33 30.3434H50.555C51.383 30.3434 52.055 29.6782 52.055 28.8565C52.055 28.0347 51.383 27.3695 50.555 27.3695H43.33C42.708 27.3695 42.202 26.8679 42.202 26.2513C42.202 25.6348 42.708 25.1332 43.33 25.1332H56.096C56.718 25.1332 57.224 25.6348 57.224 26.2513C57.224 26.8679 56.718 27.3695 56.096 27.3695H55.18C54.352 27.3695 53.68 28.0347 53.68 28.8565C53.68 29.6782 54.352 30.3434 55.18 30.3434H56.096C58.372 30.3434 60.224 28.5075 60.224 26.2513C60.224 23.9952 58.372 22.1593 56.096 22.1593H43.33C41.054 22.1593 39.202 23.9952 39.202 26.2513C39.202 28.5075 41.054 30.3434 43.33 30.3434Z" fill="black"/>
<path d="M56.5629 53.7426H49.5549C48.7269 53.7426 48.0549 54.4077 48.0549 55.2295C48.0549 56.0513 48.7269 56.7164 49.5549 56.7164H56.5629C57.1849 56.7164 57.6909 57.218 57.6909 57.8346C57.6909 58.4512 57.1849 58.9528 56.5629 58.9528H43.7969C43.1749 58.9528 42.6689 58.4512 42.6689 57.8346C42.6689 57.218 43.1749 56.7164 43.7969 56.7164H44.8049C45.6329 56.7164 46.3049 56.0513 46.3049 55.2295C46.3049 54.4077 45.6329 53.7426 44.8049 53.7426H43.7969C41.5209 53.7426 39.6689 55.5784 39.6689 57.8346C39.6689 60.0908 41.5209 61.9266 43.7969 61.9266H56.5629C58.8389 61.9266 60.6909 60.0908 60.6909 57.8346C60.6909 55.5784 58.8389 53.7426 56.5629 53.7426Z" fill="black"/>
</svg>
