<svg width="274" height="106" viewBox="0 0 274 106" fill="none" xmlns="http://www.w3.org/2000/svg">
<path d="M38.2599 91.0866L25.6786 78.7473L38.2599 66.408H50.8412L63.4224 78.7473L50.8412 91.0866H38.2599Z" stroke="black" stroke-linecap="square" stroke-linejoin="round"/>
<path d="M62.9385 78.0217L50.3572 65.6823L62.9385 53.343H75.5198L88.101 65.6823L75.5198 78.0217H62.9385Z" stroke="black" stroke-linecap="square" stroke-linejoin="round"/>
<path d="M87.535 91.4152L74.9537 79.0759L87.535 66.7366H100.116L112.698 79.0759L100.116 91.4152H87.535Z" stroke="black" stroke-linecap="square" stroke-linejoin="round"/>
<path d="M112.186 104.563L99.605 92.2234L112.186 79.884H124.768L137.349 92.2234L124.768 104.563H112.186Z" stroke="black" stroke-linecap="square" stroke-linejoin="round"/>
<path d="M136.837 91.4152L124.256 79.0759L136.837 66.7366H149.419L162 79.0759L149.419 91.4152H136.837Z" stroke="black" stroke-linecap="square" stroke-linejoin="round"/>
<path d="M62.9385 51.891L50.3572 39.5517L62.9385 27.2124H75.5198L88.101 39.5517L75.5198 51.891H62.9385Z" stroke="black" stroke-linecap="square" stroke-linejoin="round"/>
<path d="M87.535 38.8259L74.9537 26.4865L87.535 14.1472H100.116L112.698 26.4865L100.116 38.8259H87.535Z" stroke="black" stroke-linecap="square" stroke-linejoin="round"/>
<path d="M112.186 25.6786L99.605 13.3393L112.186 1H124.768L137.349 13.3393L124.768 25.6786H112.186Z" stroke="black" stroke-linecap="square" stroke-linejoin="round"/>
<path d="M136.837 38.8259L124.256 26.4865L136.837 14.1472H149.419L162 26.4865L149.419 38.8259H136.837Z" stroke="black" stroke-linecap="square" stroke-linejoin="round"/>
<path d="M13.5813 78.0217L1 65.6823L13.5813 53.343H26.1625L38.7438 65.6823L26.1625 78.0217H13.5813Z" stroke="black" stroke-linecap="square" stroke-linejoin="round"/>
<path d="M13.5813 51.891L1 39.5517L13.5813 27.2124H26.1625L38.7438 39.5517L26.1625 51.891H13.5813Z" stroke="black" stroke-linecap="square" stroke-linejoin="round"/>
<path d="M38.2599 64.9562L25.6786 52.6169L38.2599 40.2776H50.8412L63.4224 52.6169L50.8412 64.9562H38.2599Z" stroke="black" stroke-linecap="square" stroke-linejoin="round"/>
<path d="M38.2599 38.8259L25.6786 26.4865L38.2599 14.1472H50.8412L63.4224 26.4865L50.8412 38.8259H38.2599Z" stroke="black" stroke-linecap="square" stroke-linejoin="round"/>
<path d="M92.056 63V62.488L94.104 61.432L102.296 41.72H103.736L111.8 61.336L113.944 62.488V63H106.008V62.488L108.824 61.4L106.424 55.48H98.648L96.28 61.4L98.968 62.488V63H92.056ZM99.384 53.72H105.72L102.552 45.848L99.384 53.72ZM116.536 70.36V69.848L118.552 68.824V51.928L116.632 50.264V50.04L120.6 48.28H120.792L121.048 50.232H121.272C122.083 49.5493 122.861 49.0587 123.608 48.76C124.355 48.44 125.165 48.28 126.04 48.28C127.128 48.28 128.088 48.5573 128.92 49.112C129.752 49.6667 130.403 50.456 130.872 51.48C131.363 52.4827 131.608 53.688 131.608 55.096C131.608 56.8453 131.277 58.3387 130.616 59.576C129.976 60.792 129.101 61.72 127.992 62.36C126.883 63 125.667 63.32 124.344 63.32C123.149 63.32 122.072 63.2133 121.112 63V68.824L123.384 69.848V70.36H116.536ZM124.28 50.488C123.768 50.488 123.235 50.5733 122.68 50.744C122.147 50.8933 121.624 51.128 121.112 51.448V60.44C121.752 60.952 122.403 61.304 123.064 61.496C123.725 61.688 124.461 61.784 125.272 61.784C126.296 61.784 127.181 61.3573 127.928 60.504C128.675 59.6293 129.048 58.1787 129.048 56.152C129.048 54.8293 128.835 53.752 128.408 52.92C127.981 52.088 127.405 51.48 126.68 51.096C125.955 50.6907 125.155 50.488 124.28 50.488ZM138.084 44.408C137.53 44.408 137.071 44.2267 136.708 43.864C136.346 43.48 136.164 43.0213 136.164 42.488C136.164 41.9333 136.346 41.4747 136.708 41.112C137.071 40.7493 137.53 40.568 138.084 40.568C138.639 40.568 139.098 40.7493 139.46 41.112C139.823 41.4747 140.004 41.9333 140.004 42.488C140.004 43.0213 139.823 43.48 139.46 43.864C139.098 44.2267 138.639 44.408 138.084 44.408ZM134.884 63V62.488L136.9 61.464V51.928L134.98 50.264V50.04L139.268 48.28H139.46V61.464L141.476 62.488V63H134.884ZM148.18 63.32C147.177 63.32 146.345 63.032 145.684 62.456C145.022 61.8587 144.692 61.0373 144.692 59.992C144.692 58.9467 145.076 58.04 145.844 57.272C146.633 56.504 147.945 55.9067 149.78 55.48L152.82 54.776V52.44C152.82 51.7147 152.521 51.096 151.924 50.584C151.348 50.0507 150.686 49.784 149.94 49.784C149.129 49.784 148.564 50.008 148.244 50.456C147.924 50.8827 147.764 51.4587 147.764 52.184V53.08L147.604 53.24H145.94C145.62 53.24 145.396 53.1867 145.268 53.08C145.161 52.9733 145.108 52.728 145.108 52.344C145.108 51.8747 145.246 51.3947 145.524 50.904C145.801 50.4133 146.228 49.9867 146.804 49.624C147.401 49.24 148.02 48.92 148.66 48.664C149.321 48.408 150.025 48.28 150.772 48.28C151.518 48.28 152.244 48.3867 152.948 48.6C153.673 48.8133 154.26 49.176 154.708 49.688C155.156 50.1787 155.38 50.872 155.38 51.768V60.856C155.529 61.0053 155.742 61.1333 156.02 61.24C156.297 61.3467 156.681 61.4 157.172 61.4H158.388L158.484 61.464V61.56C158.228 62.0293 157.844 62.4453 157.332 62.808C156.841 63.1493 156.233 63.32 155.508 63.32C154.846 63.32 154.302 63.1493 153.876 62.808C153.47 62.4453 153.182 61.976 153.012 61.4H152.82C152.265 61.9547 151.572 62.4133 150.74 62.776C149.929 63.1387 149.076 63.32 148.18 63.32ZM147.188 59.352C147.188 60.6747 147.988 61.336 149.588 61.336C150.1 61.336 150.601 61.2827 151.092 61.176C151.604 61.0693 152.18 60.8773 152.82 60.6V55.864C151.113 56.184 149.865 56.5253 149.076 56.888C148.286 57.2293 147.774 57.6027 147.54 58.008C147.305 58.4133 147.188 58.8613 147.188 59.352ZM150.388 46.04L153.172 40.376H155.796C155.796 40.696 155.721 41.016 155.572 41.336C155.444 41.656 155.166 42.008 154.74 42.392L150.74 46.04H150.388ZM160.508 63V62.488L162.524 61.464V51.928L160.604 50.264V50.04L164.572 48.28H164.764L165.052 51H165.18C165.67 50.2107 166.118 49.624 166.524 49.24C166.95 48.8347 167.345 48.5787 167.708 48.472C168.07 48.344 168.433 48.28 168.796 48.28C168.966 48.28 169.158 48.312 169.372 48.376C169.606 48.44 169.798 48.504 169.948 48.568C170.182 48.6747 170.396 48.8027 170.588 48.952C170.801 49.1013 170.908 49.272 170.908 49.464C170.908 49.656 170.865 49.848 170.78 50.04L170.14 51.608H169.916L168.7 51.128C168.465 51.0213 168.23 50.9573 167.996 50.936C167.782 50.9147 167.569 50.904 167.356 50.904C166.46 50.904 165.702 51.3627 165.084 52.28V61.464L167.356 62.488V63H160.508ZM176.491 44.408C175.936 44.408 175.477 44.2267 175.115 43.864C174.752 43.48 174.571 43.0213 174.571 42.488C174.571 41.9333 174.752 41.4747 175.115 41.112C175.477 40.7493 175.936 40.568 176.491 40.568C177.045 40.568 177.504 40.7493 177.867 41.112C178.229 41.4747 178.411 41.9333 178.411 42.488C178.411 43.0213 178.229 43.48 177.867 43.864C177.504 44.2267 177.045 44.408 176.491 44.408ZM173.291 63V62.488L175.307 61.464V51.928L173.387 50.264V50.04L177.675 48.28H177.867V61.464L179.883 62.488V63H173.291ZM190.234 63.32C188.826 63.32 187.588 62.9893 186.522 62.328C185.476 61.6667 184.655 60.7707 184.058 59.64C183.482 58.5093 183.194 57.2293 183.194 55.8C183.194 54.3707 183.482 53.0907 184.058 51.96C184.655 50.8293 185.476 49.9333 186.522 49.272C187.588 48.6107 188.826 48.28 190.234 48.28C191.642 48.28 192.868 48.6107 193.914 49.272C194.98 49.9333 195.802 50.8293 196.378 51.96C196.975 53.0907 197.274 54.3707 197.274 55.8C197.274 57.2293 196.975 58.5093 196.378 59.64C195.802 60.7707 194.98 61.6667 193.914 62.328C192.868 62.9893 191.642 63.32 190.234 63.32ZM190.682 61.944C191.535 61.944 192.239 61.6773 192.794 61.144C193.348 60.6107 193.754 59.928 194.01 59.096C194.266 58.2427 194.394 57.3573 194.394 56.44C194.394 55.3093 194.234 54.2213 193.914 53.176C193.615 52.1307 193.124 51.2773 192.442 50.616C191.78 49.9547 190.916 49.624 189.85 49.624C188.975 49.624 188.26 49.8907 187.706 50.424C187.151 50.9573 186.735 51.64 186.458 52.472C186.202 53.304 186.074 54.1893 186.074 55.128C186.074 56.2587 186.234 57.3467 186.554 58.392C186.874 59.4373 187.375 60.2907 188.058 60.952C188.74 61.6133 189.615 61.944 190.682 61.944ZM208.955 63V62.488L211.515 61.208V43.672L208.955 42.392V41.88H217.051C218.459 41.88 219.718 42.0613 220.827 42.424C221.958 42.7653 222.843 43.288 223.483 43.992C224.123 44.6747 224.443 45.5493 224.443 46.616C224.443 47.704 224.08 48.7067 223.355 49.624C222.63 50.52 221.584 51.16 220.219 51.544C222.118 51.8 223.6 52.3973 224.667 53.336C225.734 54.2533 226.267 55.4267 226.267 56.856C226.267 58.0293 225.894 59.0853 225.147 60.024C224.422 60.9413 223.419 61.6667 222.139 62.2C220.859 62.7333 219.408 63 217.787 63H208.955ZM216.315 43.64H214.395V51.224H216.507C218.022 51.224 219.206 50.904 220.059 50.264C220.912 49.6027 221.339 48.6853 221.339 47.512C221.339 44.9307 219.664 43.64 216.315 43.64ZM217.531 52.984H214.395V61.24H217.755C219.44 61.24 220.763 60.856 221.723 60.088C222.683 59.32 223.163 58.328 223.163 57.112C223.163 55.6613 222.672 54.616 221.691 53.976C220.731 53.3147 219.344 52.984 217.531 52.984ZM236.538 63.32C234.469 63.32 232.837 62.6907 231.642 61.432C230.447 60.1733 229.85 58.5093 229.85 56.44C229.85 54.84 230.159 53.432 230.778 52.216C231.418 50.9787 232.25 50.0187 233.274 49.336C234.319 48.632 235.45 48.28 236.666 48.28C238.351 48.28 239.674 48.8667 240.634 50.04C241.615 51.2133 242.106 52.8987 242.106 55.096L241.946 55.256H232.378C232.399 56.2373 232.591 57.1653 232.954 58.04C233.317 58.8933 233.893 59.5867 234.682 60.12C235.493 60.6533 236.57 60.92 237.914 60.92C239.087 60.92 240.463 60.4933 242.042 59.64H242.138V59.96C241.647 60.8773 240.911 61.6667 239.93 62.328C238.97 62.9893 237.839 63.32 236.538 63.32ZM236.154 49.688C235.13 49.688 234.287 50.0507 233.626 50.776C232.986 51.48 232.591 52.4827 232.442 53.784H239.674C239.439 52.3333 239.023 51.288 238.426 50.648C237.85 50.008 237.093 49.688 236.154 49.688ZM252.038 63.32C249.969 63.32 248.337 62.6907 247.142 61.432C245.947 60.1733 245.35 58.5093 245.35 56.44C245.35 54.84 245.659 53.432 246.278 52.216C246.918 50.9787 247.75 50.0187 248.774 49.336C249.819 48.632 250.95 48.28 252.166 48.28C253.851 48.28 255.174 48.8667 256.134 50.04C257.115 51.2133 257.606 52.8987 257.606 55.096L257.446 55.256H247.878C247.899 56.2373 248.091 57.1653 248.454 58.04C248.817 58.8933 249.393 59.5867 250.182 60.12C250.993 60.6533 252.07 60.92 253.414 60.92C254.587 60.92 255.963 60.4933 257.542 59.64H257.638V59.96C257.147 60.8773 256.411 61.6667 255.43 62.328C254.47 62.9893 253.339 63.32 252.038 63.32ZM251.654 49.688C250.63 49.688 249.787 50.0507 249.126 50.776C248.486 51.48 248.091 52.4827 247.942 53.784H255.174C254.939 52.3333 254.523 51.288 253.926 50.648C253.35 50.008 252.593 49.688 251.654 49.688ZM266.066 63.32C265.063 63.32 264.199 63.2347 263.474 63.064C262.749 62.8933 262.013 62.616 261.266 62.232V58.648H261.714L262.738 60.408C263.399 61.5813 264.477 62.168 265.97 62.168C266.823 62.168 267.485 61.9653 267.954 61.56C268.445 61.1547 268.69 60.6 268.69 59.896C268.69 59.2773 268.541 58.7973 268.242 58.456C267.943 58.1147 267.517 57.816 266.962 57.56C266.429 57.2827 265.789 56.9733 265.042 56.632C263.954 56.1413 263.111 55.608 262.514 55.032C261.938 54.4347 261.65 53.6027 261.65 52.536C261.65 51.7467 261.874 51.032 262.322 50.392C262.77 49.752 263.335 49.24 264.018 48.856C264.722 48.472 265.447 48.28 266.194 48.28C266.983 48.28 267.709 48.376 268.37 48.568C269.031 48.76 269.703 49.0267 270.386 49.368V52.856H269.938L268.882 51.16C268.519 50.584 268.125 50.168 267.698 49.912C267.271 49.656 266.813 49.528 266.322 49.528C265.597 49.528 265.01 49.7093 264.562 50.072C264.135 50.4347 263.922 50.936 263.922 51.576C263.922 52.3013 264.178 52.856 264.69 53.24C265.223 53.6027 265.991 54.0187 266.994 54.488C267.591 54.7867 268.189 55.0853 268.786 55.384C269.405 55.6827 269.906 56.1093 270.29 56.664C270.695 57.1973 270.898 57.9653 270.898 58.968C270.898 59.9067 270.642 60.7067 270.13 61.368C269.618 62.008 268.989 62.4987 268.242 62.84C267.495 63.16 266.77 63.32 266.066 63.32Z" fill="black"/>
</svg>
