<svg width="157" height="65" viewBox="0 0 157 65" fill="none" xmlns="http://www.w3.org/2000/svg">
<path d="M23.6722 55.8167L16.0167 48.3084L23.6722 40.8H31.3278L38.9833 48.3084L31.3278 55.8167H23.6722Z" stroke="black" stroke-linecap="square" stroke-linejoin="round"/>
<path d="M38.6889 47.8667L31.0333 40.3584L38.6889 32.85H46.3444L54 40.3584L46.3444 47.8667H38.6889Z" stroke="black" stroke-linecap="square" stroke-linejoin="round"/>
<path d="M53.6556 56.0167L46 48.5083L53.6556 41H61.3111L68.9667 48.5083L61.3111 56.0167H53.6556Z" stroke="black" stroke-linecap="square" stroke-linejoin="round"/>
<path d="M68.6556 64.0167L61 56.5083L68.6556 49H76.3111L83.9667 56.5083L76.3111 64.0167H68.6556Z" stroke="black" stroke-linecap="square" stroke-linejoin="round"/>
<path d="M83.6556 56.0167L76 48.5083L83.6556 41H91.3111L98.9667 48.5083L91.3111 56.0167H83.6556Z" stroke="black" stroke-linecap="square" stroke-linejoin="round"/>
<path d="M38.6889 31.9667L31.0333 24.4583L38.6889 16.95H46.3444L54 24.4583L46.3444 31.9667H38.6889Z" stroke="black" stroke-linecap="square" stroke-linejoin="round"/>
<path d="M53.6556 24.0167L46 16.5083L53.6556 9H61.3111L68.9667 16.5083L61.3111 24.0167H53.6556Z" stroke="black" stroke-linecap="square" stroke-linejoin="round"/>
<path d="M68.6556 16.0167L61 8.50834L68.6556 1H76.3111L83.9667 8.50834L76.3111 16.0167H68.6556Z" stroke="black" stroke-linecap="square" stroke-linejoin="round"/>
<path d="M83.6556 24.0167L76 16.5083L83.6556 9H91.3111L98.9667 16.5083L91.3111 24.0167H83.6556Z" stroke="black" stroke-linecap="square" stroke-linejoin="round"/>
<path d="M8.65556 47.8667L1 40.3584L8.65556 32.85H16.3111L23.9667 40.3584L16.3111 47.8667H8.65556Z" stroke="black" stroke-linecap="square" stroke-linejoin="round"/>
<path d="M8.65556 31.9667L1 24.4583L8.65556 16.95H16.3111L23.9667 24.4583L16.3111 31.9667H8.65556Z" stroke="black" stroke-linecap="square" stroke-linejoin="round"/>
<path d="M23.6722 39.9167L16.0167 32.4083L23.6722 24.9H31.3278L38.9833 32.4083L31.3278 39.9167H23.6722Z" stroke="black" stroke-linecap="square" stroke-linejoin="round"/>
<path d="M23.6722 24.0167L16.0167 16.5083L23.6722 9H31.3278L38.9833 16.5083L31.3278 24.0167H23.6722Z" stroke="black" stroke-linecap="square" stroke-linejoin="round"/>
<path d="M54.594 38V37.712L55.746 37.118L60.354 26.03H61.164L65.7 37.064L66.906 37.712V38H62.442V37.712L64.026 37.1L62.676 33.77H58.302L56.97 37.1L58.482 37.712V38H54.594ZM58.716 32.78H62.28L60.498 28.352L58.716 32.78ZM68.364 42.14V41.852L69.498 41.276V31.772L68.418 30.836V30.71L70.65 29.72H70.758L70.902 30.818H71.028C71.484 30.434 71.922 30.158 72.342 29.99C72.762 29.81 73.218 29.72 73.71 29.72C74.322 29.72 74.862 29.876 75.33 30.188C75.798 30.5 76.164 30.944 76.428 31.52C76.704 32.084 76.842 32.762 76.842 33.554C76.842 34.538 76.656 35.378 76.284 36.074C75.924 36.758 75.432 37.28 74.808 37.64C74.184 38 73.5 38.18 72.756 38.18C72.084 38.18 71.478 38.12 70.938 38V41.276L72.216 41.852V42.14H68.364ZM72.72 30.962C72.432 30.962 72.132 31.01 71.82 31.106C71.52 31.19 71.226 31.322 70.938 31.502V36.56C71.298 36.848 71.664 37.046 72.036 37.154C72.408 37.262 72.822 37.316 73.278 37.316C73.854 37.316 74.352 37.076 74.772 36.596C75.192 36.104 75.402 35.288 75.402 34.148C75.402 33.404 75.282 32.798 75.042 32.33C74.802 31.862 74.478 31.52 74.07 31.304C73.662 31.076 73.212 30.962 72.72 30.962ZM80.4849 27.542C80.1729 27.542 79.9149 27.44 79.7109 27.236C79.5069 27.02 79.4049 26.762 79.4049 26.462C79.4049 26.15 79.5069 25.892 79.7109 25.688C79.9149 25.484 80.1729 25.382 80.4849 25.382C80.7969 25.382 81.0549 25.484 81.2589 25.688C81.4629 25.892 81.5649 26.15 81.5649 26.462C81.5649 26.762 81.4629 27.02 81.2589 27.236C81.0549 27.44 80.7969 27.542 80.4849 27.542ZM78.6849 38V37.712L79.8189 37.136V31.772L78.7389 30.836V30.71L81.1509 29.72H81.2589V37.136L82.3929 37.712V38H78.6849ZM86.1635 38.18C85.5995 38.18 85.1315 38.018 84.7595 37.694C84.3875 37.358 84.2015 36.896 84.2015 36.308C84.2015 35.72 84.4175 35.21 84.8495 34.778C85.2935 34.346 86.0315 34.01 87.0635 33.77L88.7735 33.374V32.06C88.7735 31.652 88.6055 31.304 88.2695 31.016C87.9455 30.716 87.5735 30.566 87.1535 30.566C86.6975 30.566 86.3795 30.692 86.1995 30.944C86.0195 31.184 85.9295 31.508 85.9295 31.916V32.42L85.8395 32.51H84.9035C84.7235 32.51 84.5975 32.48 84.5255 32.42C84.4655 32.36 84.4355 32.222 84.4355 32.006C84.4355 31.742 84.5135 31.472 84.6695 31.196C84.8255 30.92 85.0655 30.68 85.3895 30.476C85.7255 30.26 86.0735 30.08 86.4335 29.936C86.8055 29.792 87.2015 29.72 87.6215 29.72C88.0415 29.72 88.4495 29.78 88.8455 29.9C89.2535 30.02 89.5835 30.224 89.8355 30.512C90.0875 30.788 90.2135 31.178 90.2135 31.682V36.794C90.2975 36.878 90.4175 36.95 90.5735 37.01C90.7295 37.07 90.9455 37.1 91.2215 37.1H91.9055L91.9595 37.136V37.19C91.8155 37.454 91.5995 37.688 91.3115 37.892C91.0355 38.084 90.6935 38.18 90.2855 38.18C89.9135 38.18 89.6075 38.084 89.3675 37.892C89.1395 37.688 88.9775 37.424 88.8815 37.1H88.7735C88.4615 37.412 88.0715 37.67 87.6035 37.874C87.1475 38.078 86.6675 38.18 86.1635 38.18ZM85.6055 35.948C85.6055 36.692 86.0555 37.064 86.9555 37.064C87.2435 37.064 87.5255 37.034 87.8015 36.974C88.0895 36.914 88.4135 36.806 88.7735 36.65V33.986C87.8135 34.166 87.1115 34.358 86.6675 34.562C86.2235 34.754 85.9355 34.964 85.8035 35.192C85.6715 35.42 85.6055 35.672 85.6055 35.948ZM87.4055 28.46L88.9715 25.274H90.4475C90.4475 25.454 90.4055 25.634 90.3215 25.814C90.2495 25.994 90.0935 26.192 89.8535 26.408L87.6035 28.46H87.4055ZM93.0981 38V37.712L94.2321 37.136V31.772L93.1521 30.836V30.71L95.3841 29.72H95.4921L95.6541 31.25H95.7261C96.0021 30.806 96.2541 30.476 96.4821 30.26C96.7221 30.032 96.9441 29.888 97.1481 29.828C97.3521 29.756 97.5561 29.72 97.7601 29.72C97.8561 29.72 97.9641 29.738 98.0841 29.774C98.2161 29.81 98.3241 29.846 98.4081 29.882C98.5401 29.942 98.6601 30.014 98.7681 30.098C98.8881 30.182 98.9481 30.278 98.9481 30.386C98.9481 30.494 98.9241 30.602 98.8761 30.71L98.5161 31.592H98.3901L97.7061 31.322C97.5741 31.262 97.4421 31.226 97.3101 31.214C97.1901 31.202 97.0701 31.196 96.9501 31.196C96.4461 31.196 96.0201 31.454 95.6721 31.97V37.136L96.9501 37.712V38H93.0981ZM102.088 27.542C101.776 27.542 101.518 27.44 101.314 27.236C101.11 27.02 101.008 26.762 101.008 26.462C101.008 26.15 101.11 25.892 101.314 25.688C101.518 25.484 101.776 25.382 102.088 25.382C102.4 25.382 102.658 25.484 102.862 25.688C103.066 25.892 103.168 26.15 103.168 26.462C103.168 26.762 103.066 27.02 102.862 27.236C102.658 27.44 102.4 27.542 102.088 27.542ZM100.288 38V37.712L101.422 37.136V31.772L100.342 30.836V30.71L102.754 29.72H102.862V37.136L103.996 37.712V38H100.288ZM109.819 38.18C109.027 38.18 108.331 37.994 107.731 37.622C107.143 37.25 106.681 36.746 106.345 36.11C106.021 35.474 105.859 34.754 105.859 33.95C105.859 33.146 106.021 32.426 106.345 31.79C106.681 31.154 107.143 30.65 107.731 30.278C108.331 29.906 109.027 29.72 109.819 29.72C110.611 29.72 111.301 29.906 111.889 30.278C112.489 30.65 112.951 31.154 113.275 31.79C113.611 32.426 113.779 33.146 113.779 33.95C113.779 34.754 113.611 35.474 113.275 36.11C112.951 36.746 112.489 37.25 111.889 37.622C111.301 37.994 110.611 38.18 109.819 38.18ZM110.071 37.406C110.551 37.406 110.947 37.256 111.259 36.956C111.571 36.656 111.799 36.272 111.943 35.804C112.087 35.324 112.159 34.826 112.159 34.31C112.159 33.674 112.069 33.062 111.889 32.474C111.721 31.886 111.445 31.406 111.061 31.034C110.689 30.662 110.203 30.476 109.603 30.476C109.111 30.476 108.709 30.626 108.397 30.926C108.085 31.226 107.851 31.61 107.695 32.078C107.551 32.546 107.479 33.044 107.479 33.572C107.479 34.208 107.569 34.82 107.749 35.408C107.929 35.996 108.211 36.476 108.595 36.848C108.979 37.22 109.471 37.406 110.071 37.406ZM120.35 38V37.712L121.79 36.992V27.128L120.35 26.408V26.12H124.904C125.696 26.12 126.404 26.222 127.028 26.426C127.664 26.618 128.162 26.912 128.522 27.308C128.882 27.692 129.062 28.184 129.062 28.784C129.062 29.396 128.858 29.96 128.45 30.476C128.042 30.98 127.454 31.34 126.686 31.556C127.754 31.7 128.588 32.036 129.188 32.564C129.788 33.08 130.088 33.74 130.088 34.544C130.088 35.204 129.878 35.798 129.458 36.326C129.05 36.842 128.486 37.25 127.766 37.55C127.046 37.85 126.23 38 125.318 38H120.35ZM124.49 27.11H123.41V31.376H124.598C125.45 31.376 126.116 31.196 126.596 30.836C127.076 30.464 127.316 29.948 127.316 29.288C127.316 27.836 126.374 27.11 124.49 27.11ZM125.174 32.366H123.41V37.01H125.3C126.248 37.01 126.992 36.794 127.532 36.362C128.072 35.93 128.342 35.372 128.342 34.688C128.342 33.872 128.066 33.284 127.514 32.924C126.974 32.552 126.194 32.366 125.174 32.366ZM135.865 38.18C134.701 38.18 133.783 37.826 133.111 37.118C132.439 36.41 132.103 35.474 132.103 34.31C132.103 33.41 132.277 32.618 132.625 31.934C132.985 31.238 133.453 30.698 134.029 30.314C134.617 29.918 135.253 29.72 135.937 29.72C136.885 29.72 137.629 30.05 138.169 30.71C138.721 31.37 138.997 32.318 138.997 33.554L138.907 33.644H133.525C133.537 34.196 133.645 34.718 133.849 35.21C134.053 35.69 134.377 36.08 134.821 36.38C135.277 36.68 135.883 36.83 136.639 36.83C137.299 36.83 138.073 36.59 138.961 36.11H139.015V36.29C138.739 36.806 138.325 37.25 137.773 37.622C137.233 37.994 136.597 38.18 135.865 38.18ZM135.649 30.512C135.073 30.512 134.599 30.716 134.227 31.124C133.867 31.52 133.645 32.084 133.561 32.816H137.629C137.497 32 137.263 31.412 136.927 31.052C136.603 30.692 136.177 30.512 135.649 30.512ZM144.584 38.18C143.42 38.18 142.502 37.826 141.83 37.118C141.158 36.41 140.822 35.474 140.822 34.31C140.822 33.41 140.996 32.618 141.344 31.934C141.704 31.238 142.172 30.698 142.748 30.314C143.336 29.918 143.972 29.72 144.656 29.72C145.604 29.72 146.348 30.05 146.888 30.71C147.44 31.37 147.716 32.318 147.716 33.554L147.626 33.644H142.244C142.256 34.196 142.364 34.718 142.568 35.21C142.772 35.69 143.096 36.08 143.54 36.38C143.996 36.68 144.602 36.83 145.358 36.83C146.018 36.83 146.792 36.59 147.68 36.11H147.734V36.29C147.458 36.806 147.044 37.25 146.492 37.622C145.952 37.994 145.316 38.18 144.584 38.18ZM144.368 30.512C143.792 30.512 143.318 30.716 142.946 31.124C142.586 31.52 142.364 32.084 142.28 32.816H146.348C146.216 32 145.982 31.412 145.646 31.052C145.322 30.692 144.896 30.512 144.368 30.512ZM152.475 38.18C151.911 38.18 151.425 38.132 151.017 38.036C150.609 37.94 150.195 37.784 149.775 37.568V35.552H150.027L150.603 36.542C150.975 37.202 151.581 37.532 152.421 37.532C152.901 37.532 153.273 37.418 153.537 37.19C153.813 36.962 153.951 36.65 153.951 36.254C153.951 35.906 153.867 35.636 153.699 35.444C153.531 35.252 153.291 35.084 152.979 34.94C152.679 34.784 152.319 34.61 151.899 34.418C151.287 34.142 150.813 33.842 150.477 33.518C150.153 33.182 149.991 32.714 149.991 32.114C149.991 31.67 150.117 31.268 150.369 30.908C150.621 30.548 150.939 30.26 151.323 30.044C151.719 29.828 152.127 29.72 152.547 29.72C152.991 29.72 153.399 29.774 153.771 29.882C154.143 29.99 154.521 30.14 154.905 30.332V32.294H154.653L154.059 31.34C153.855 31.016 153.633 30.782 153.393 30.638C153.153 30.494 152.895 30.422 152.619 30.422C152.211 30.422 151.881 30.524 151.629 30.728C151.389 30.932 151.269 31.214 151.269 31.574C151.269 31.982 151.413 32.294 151.701 32.51C152.001 32.714 152.433 32.948 152.997 33.212C153.333 33.38 153.669 33.548 154.005 33.716C154.353 33.884 154.635 34.124 154.851 34.436C155.079 34.736 155.193 35.168 155.193 35.732C155.193 36.26 155.049 36.71 154.761 37.082C154.473 37.442 154.119 37.718 153.699 37.91C153.279 38.09 152.871 38.18 152.475 38.18Z" fill="black"/>
</svg>
