<svg width="100" height="100" viewBox="0 0 100 100" fill="none" xmlns="http://www.w3.org/2000/svg">
<path d="M57.7659 61.4222C57.7659 60.8908 57.4799 60.4002 57.0159 60.1345L50.9909 56.6858C50.5269 56.4192 49.9549 56.4192 49.4909 56.6858L43.4659 60.1345C43.0019 60.4002 42.7159 60.8908 42.7159 61.4222V67.3966L37.4409 70.416C36.9769 70.6817 36.6909 71.1724 36.6909 71.7037V78.601C36.6909 79.1324 36.9769 79.623 37.4409 79.8887L43.4659 83.3374C43.6979 83.4702 43.9569 83.5366 44.2159 83.5366C44.4749 83.5366 44.7339 83.4702 44.9659 83.3374L50.2409 80.3169L55.5159 83.3364C55.7479 83.4692 56.0069 83.5356 56.2659 83.5356C56.5249 83.5356 56.7839 83.4692 57.0159 83.3364L63.041 79.8877C63.505 79.6221 63.791 79.1314 63.791 78.6V71.7027C63.791 71.1714 63.505 70.6807 63.041 70.4151L57.7659 67.3956V61.4222ZM50.2409 59.6904L54.7659 62.2806V67.3966L50.2409 69.9868L45.7159 67.3966V62.2806L50.2409 59.6904ZM44.2159 80.3318L39.6909 77.7416V72.5622L44.1589 70.0037L48.7409 72.6256V77.7416L44.2159 80.3318ZM60.792 77.7416L56.2669 80.3318L51.7409 77.7416V72.6256L56.3229 70.0037L60.792 72.5612V77.7416Z" fill="black"/>
<path d="M30 61.5261V84.7529C30 90.2842 34.54 94.7856 40.121 94.7856H60.361C65.9419 94.7856 70.4819 90.2842 70.4819 84.7529V62.2557C70.4819 57.2289 66.7329 53.0536 61.861 52.333V49.8944C63.4789 49.1083 64.6049 47.4747 64.6049 45.5724C64.6049 42.9108 62.42 40.7449 59.735 40.7449H40.747C38.062 40.7449 35.877 42.9108 35.877 45.5724C35.877 47.4747 37.003 49.1083 38.621 49.8944V52.3161C33.613 52.9426 30 56.6926 30 61.5261ZM67.4819 62.2557V66.768H63.3399C62.5109 66.768 61.84 67.4332 61.84 68.255C61.84 69.0767 62.5109 69.7419 63.3399 69.7419H67.4819V84.7529C67.4819 88.6456 64.2879 91.8118 60.361 91.8118H40.121C36.194 91.8118 33 88.6456 33 84.7529V69.7419H37.73C38.559 69.7419 39.23 69.0767 39.23 68.255C39.23 67.4332 38.559 66.768 37.73 66.768H33V61.5261C33 57.8584 35.995 55.1968 40.121 55.1968C40.95 55.1968 41.621 54.5316 41.621 53.7099V50.399H58.861V53.7099C58.861 54.5316 59.532 55.1968 60.361 55.1968C64.2879 55.1968 67.4819 58.3629 67.4819 62.2557ZM40.747 43.7187H59.735C60.766 43.7187 61.605 44.5504 61.605 45.5724C61.605 46.5944 60.766 47.4261 59.735 47.4261H40.747C39.716 47.4261 38.877 46.5944 38.877 45.5724C38.877 44.5504 39.716 43.7187 40.747 43.7187Z" fill="black"/>
<path d="M47.298 87.4342H45.704C44.875 87.4342 44.204 88.0996 44.204 88.9216C44.204 89.7436 44.875 90.4089 45.704 90.4089H47.298C48.127 90.4089 48.798 89.7436 48.798 88.9216C48.798 88.0996 48.126 87.4342 47.298 87.4342Z" fill="black"/>
<path d="M41.4091 87.4343H40.1211C38.6291 87.4343 37.4151 86.2319 37.4151 84.7529V82.234C37.4151 81.4122 36.7441 80.7471 35.9151 80.7471C35.086 80.7471 34.415 81.4122 34.415 82.234V84.7638C34.415 84.7678 34.415 84.7717 34.415 84.7757C34.428 87.8834 36.9821 90.4082 40.1211 90.4082H41.4091C42.2381 90.4082 42.9091 89.743 42.9091 88.9213C42.9091 88.0995 42.2381 87.4343 41.4091 87.4343Z" fill="black"/>
<path d="M59.901 56.6005C59.072 56.6005 58.401 57.2656 58.401 58.0874C58.401 58.9091 59.072 59.5743 59.901 59.5743H60.361C61.853 59.5743 63.067 60.7777 63.067 62.2567V63.2965C63.067 64.1183 63.738 64.7834 64.567 64.7834C65.396 64.7834 66.067 64.1183 66.067 63.2965V62.2567C66.067 59.1381 63.507 56.6005 60.361 56.6005H59.901V56.6005Z" fill="black"/>
<path d="M37.182 29.809C37.182 30.9916 37.647 32.1038 38.491 32.9404L41.956 36.3762C42.8 37.2129 43.922 37.6738 45.116 37.6738C46.31 37.6738 47.432 37.2129 48.276 36.3762C48.672 35.9837 48.966 35.5297 49.182 35.0509C49.889 35.495 50.705 35.7408 51.562 35.7408C52.756 35.7408 53.878 35.2799 54.722 34.4432C56.223 32.9553 56.423 30.6664 55.337 28.9555C55.826 28.7374 56.281 28.441 56.672 28.0534C57.982 26.7548 58.306 24.8426 57.645 23.2397L68.536 12.4436C70.12 10.8744 70.12 8.3189 68.536 6.7497C67.769 5.98938 66.749 5.57007 65.664 5.57007C64.579 5.57007 63.559 5.98938 62.791 6.7497L51.953 17.4942C51.363 17.2167 50.72 17.0561 50.048 17.0561C48.854 17.0561 47.732 17.517 46.888 18.3537C46.497 18.7413 46.197 19.1923 45.978 19.678C45.272 19.2359 44.457 18.9901 43.602 18.9901C42.408 18.9901 41.286 19.451 40.442 20.2877C39.598 21.1243 39.133 22.2365 39.133 23.4201C39.133 24.2677 39.381 25.0756 39.827 25.7754C39.337 25.9935 38.882 26.2899 38.492 26.6775C37.647 27.5132 37.182 28.6254 37.182 29.809ZM46.155 34.2737C45.6 34.8239 44.633 34.8239 44.078 34.2737L40.613 30.8379C40.336 30.5633 40.183 30.1976 40.183 29.809C40.183 29.4204 40.336 29.0546 40.613 28.779C40.89 28.5044 41.259 28.3528 41.652 28.3528C42.043 28.3528 42.411 28.5034 42.688 28.7761L46.156 32.2138C46.433 32.4884 46.586 32.8542 46.586 33.2438C46.586 33.6333 46.432 33.9991 46.155 34.2737ZM64.912 8.85221C65.313 8.45471 66.013 8.45471 66.414 8.85221C66.828 9.26261 66.828 9.93073 66.414 10.3411L55.769 20.8934L54.267 19.4044L64.912 8.85221ZM49.009 20.4562C49.286 20.1816 49.655 20.0299 50.047 20.0299C50.439 20.0299 50.808 20.1816 51.086 20.4562L54.551 23.891C54.828 24.1656 54.981 24.5314 54.981 24.9209C54.981 25.3105 54.828 25.6753 54.551 25.9509C53.996 26.5011 53.029 26.5011 52.474 25.9509L49.009 22.5161C48.732 22.2405 48.579 21.8757 48.579 21.4861C48.579 21.0966 48.731 20.7318 49.009 20.4562ZM42.563 22.3892C42.84 22.1146 43.209 21.963 43.601 21.963C43.993 21.963 44.362 22.1146 44.64 22.3892L46.888 24.6176L50.353 28.0524L52.601 30.2808C53.173 30.8488 53.173 31.7717 52.601 32.3397C52.046 32.8899 51.079 32.8899 50.524 32.3397L48.276 30.1113L44.811 26.6755C44.809 26.6735 44.807 26.6725 44.806 26.6706L42.563 24.4471C42.286 24.1715 42.133 23.8067 42.133 23.4172C42.133 23.0276 42.285 22.6648 42.563 22.3892Z" fill="black"/>
</svg>
